# xmcd CD database file
#
# Track frame offsets:
#	150
#	21215
#	40315
#
# Disc length: 818 seconds
#
# Revision: 0
# Processed by: cddbd v1.5.1PL0 Copyright (c) Steve Scherf et al.
# Submitted via: CDex 1.51
#
DISCID=1d033003
DTITLE=篠原涼子 - しあわせはそばにある
DYEAR=1996
DGENRE=JPop
TTITLE0=しあわせはそばにある
TTITLE1=愛が痛いよ
TTITLE2=しあわせはそばにある(オリジナル・カラオケ)
EXTD=YEAR: 1996
EXTT0=
EXTT1=
EXTT2=
PLAYORDER=
